{"accessors" : [{"bufferView" : 0, "byteOffset" : 0, "componentType" : 5123, "count" : 8268, "type" : "SCALAR", "max" : [6640], "min" : [0]}, {"bufferView" : 1, "byteOffset" : 0, "componentType" : 5126, "count" : 6641, "type" : "VEC3", "max" : [0.12190999835729599, 0.5835549831390381, 0.48697298765182495], "min" : [-0.12196599692106247, 0.00020799999765586108, -0.3826889991760254], "name" : "POSITION"}, {"bufferView" : 1, "byteOffset" : 12, "componentType" : 5126, "count" : 6641, "type" : "VEC2", "max" : [2.07669997215271, 0.12200000137090683], "min" : [-1.0666999816894531, -1], "name" : "TEXCOORD_0"}, {"bufferView" : 1, "byteOffset" : 20, "componentType" : 5126, "count" : 6641, "type" : "VEC3", "max" : [0.9981452226638794, 0.9991591572761536, 0.993610680103302], "min" : [-0.9988835453987122, -0.9995046257972717, -0.9906989336013794], "name" : "NORMAL"}], "asset" : {"generator" : "Aspose.3D 22.7", "version" : "2.0"}, "buffers" : [{"uri" : "data:application/octet-stream;base64,", "byteLength" : 281120}], "bufferViews" : [{"buffer" : 0, "byteOffset" : 0, "byteLength" : 16536, "target" : 34963}, {"buffer" : 0, "byteOffset" : 16540, "byteLength" : 264576, "byteStride" : 32, "target" : 34962}], "meshes" : [{"primitives" : [{"attributes" : {"POSITION" : 1, "TEXCOORD_0" : 2, "NORMAL" : 3}, "indices" : 0, "mode" : 4}], "name" : ""}], "nodes" : [{"mesh" : 0, "name" : "Wolf_obj_body.004_Cube.007"}], "scene" : 0, "scenes" : [{"nodes" : [0]}]}