{"accessors":[{"bufferView":3,"componentType":5126,"count":2841,"max":[18.56800079345703,43.935096740722656,21.676998138427734],"min":[-18.5679988861084,-5.469366702836849e-15,-25.809200286865234],"type":"VEC3"},{"bufferView":3,"byteOffset":34092,"componentType":5126,"count":2841,"max":[0.9994231462478638,0.9991156458854675,0.9999527931213379],"min":[-0.9994230270385742,-1,-0.9996877312660217],"type":"VEC3"},{"bufferView":2,"componentType":5126,"count":2841,"max":[0.9980000257492065,0.9904990196228027],"min":[0.0020000000949949026,0.006785999983549118],"type":"VEC2"},{"bufferView":1,"componentType":5125,"count":13692,"type":"SCALAR"},{"bufferView":3,"byteOffset":68184,"componentType":5126,"count":120,"max":[9.021120071411133,40.061195373535156,20.523399353027344],"min":[-9.021120071411133,29.805700302124023,15.755699157714844],"type":"VEC3"},{"bufferView":3,"byteOffset":69624,"componentType":5126,"count":120,"max":[0.8729099631309509,0.5892971754074097,0.9368556141853333],"min":[-0.8729099631309509,-0.0985533744096756,0.466789573431015],"type":"VEC3"},{"bufferView":2,"byteOffset":22728,"componentType":5126,"count":120,"max":[0.4517199993133545,1.9923900365829468],"min":[0.04828202724456787,1.7571799755096436],"type":"VEC2"},{"bufferView":1,"byteOffset":54768,"componentType":5125,"count":552,"type":"SCALAR"},{"bufferView":5,"componentType":5126,"count":47,"max":[1,1,0.6448327302932739,0,1,1,1,0,0.867565929889679,0.6524548530578613,1,0,11.6841459274292,25.35853385925293,20.723257064819336,1],"min":[-0.6657339334487915,-1,-0.6448354125022888,0,-0.9402427077293396,-0.8986042737960815,-0.8026443719863892,0,-0.9948398470878601,-0.6524548530578613,-0.34519559144973755,0,-29.0602970123291,-25.358638763427734,-32.324134826660156,1],"type":"MAT4"},{"bufferView":0,"componentType":5123,"count":2841,"type":"VEC4"},{"bufferView":4,"componentType":5126,"count":2841,"max":[1,0.5,0.3100000023841858,0.08000000566244125],"min":[0.3700000047683716,0,0,0],"type":"VEC4"},{"bufferView":0,"byteOffset":22728,"componentType":5123,"count":120,"type":"VEC4"},{"bufferView":4,"byteOffset":45456,"componentType":5126,"count":120,"max":[1,0,0,0],"min":[1,0,0,0],"type":"VEC4"}],"asset":{"extras":{"author":"Neut2000 (https://sketchfab.com/Neut2000)","license":"CC-BY-4.0 (http://creativecommons.org/licenses/by/4.0/)","source":"https://sketchfab.com/3d-models/squirtle-0a8450f3b74445f5bb16fd3fd4f6c984","title":"Squirtle"},"generator":"Sketchfab-12.67.0","version":"2.0"},"bufferViews":[{"buffer":0,"byteLength":23688,"byteStride":8,"name":"shortBufferViews","target":34962},{"buffer":0,"byteLength":56976,"byteOffset":23688,"name":"floatBufferViews","target":34963},{"buffer":0,"byteLength":23688,"byteOffset":80664,"byteStride":8,"name":"floatBufferViews","target":34962},{"buffer":0,"byteLength":71064,"byteOffset":104352,"byteStride":12,"name":"floatBufferViews","target":34962},{"buffer":0,"byteLength":47376,"byteOffset":175416,"byteStride":16,"name":"floatBufferViews","target":34962},{"buffer":0,"byteLength":3008,"byteOffset":222792,"name":"floatBufferViews"}],"buffers":[{"byteLength":225800,"uri":"data:application/octet-stream;base64,"}],"images":[{"uri":"data:application/octet-stream;base64,"},{"uri":"data:application/octet-stream;base64,"}],"materials":[{"doubleSided":true,"name":"Material_60","pbrMetallicRoughness":{"baseColorTexture":{"index":0},"metallicFactor":0,"roughnessFactor":0.8929713596497552}},{"doubleSided":true,"name":"Material_61","pbrMetallicRoughness":{"baseColorTexture":{"index":1},"metallicFactor":0,"roughnessFactor":0.8929713596497552}}],"meshes":[{"name":"Squirtle_Material #60_0","primitives":[{"attributes":{"JOINTS_0":9,"NORMAL":1,"POSITION":0,"TEXCOORD_0":2,"WEIGHTS_0":10},"indices":3,"material":0,"mode":4}]},{"name":"Squirtle_Material #61_0","primitives":[{"attributes":{"JOINTS_0":11,"NORMAL":5,"POSITION":4,"TEXCOORD_0":6,"WEIGHTS_0":12},"indices":7,"material":1,"mode":4}]}],"nodes":[{"children":[1],"matrix":[1,0,0,0,0,2.220446049250313e-16,-1,0,0,1,2.220446049250313e-16,0,0,0,0,1],"name":"Sketchfab_model"},{"children":[2],"matrix":[1,0,0,0,0,0,1,0,0,-1,0,0,0,0,0,1],"name":"Squirtle.FBX"},{"children":[3],"name":"RootNode"},{"children":[4,6,7,5],"name":"Object_3"},{"children":[8],"name":"_rootJoint"},{"matrix":[0.9999999999999999,-2.7755575615628914e-17,-2.0816681711721685e-17,0,-2.081668171172169e-17,6.123233995736767e-17,-1.0000000000000002,0,2.7755575615628926e-17,1.0000000000000002,6.123233995736767e-17,0,0,-3.552713678800501e-15,-3.552713678800501e-15,1],"name":"Object_5"},{"mesh":0,"name":"Object_6","skin":0},{"mesh":1,"name":"Object_7","skin":0},{"children":[9,52,53],"name":"pm0007_00_00","rotation":[-1.5695823663008923e-7,0,0,1]},{"children":[10],"name":"Origin_02"},{"children":[11,12,16,26,32,42,48],"name":"Waist_03","rotation":[0,0,0.7071080803871155,0.7071054577827454],"translation":[0,17.531200408935547,0.7336649894714355]},{"name":"EndWaist_04","rotation":[2.0194839173657902e-28,2.6469779601696886e-23,-7.330702165349757e-24,1],"translation":[21.95819854736328,0,0]},{"children":[13,14],"name":"Head_01","rotation":[-7.085102944283678e-24,-0.15620964765548706,-4.480086862245411e-23,0.9877239465713501],"translation":[10.875,1.3552527156068805e-20,5.878479957580566]},{"name":"EndHead_05","rotation":[-2.718740321173282e-23,-2.7755575615628914e-17,-1.4389630704798202e-23,1],"translation":[18.837404251098633,-1.4551915228366852e-11,-0.000001430511474609375]},{"children":[15],"name":"Jaw_06","rotation":[0.5759002566337585,8.64155083490914e-7,0.8175199627876282,-9.344069553662848e-7],"scale":[0.9999999403953552,1,0.9999999403953552],"translation":[5.310544967651367,-1.4551915228366852e-11,2.357038974761963]},{"name":"EndJaw_07","rotation":[4.547473508864641e-13,1.4901161193847656e-8,-6.988021814847978e-21,1],"translation":[11.305501937866211,0,0]},{"children":[17],"name":"LArm_08","rotation":[-0.3746120035648346,-0.17490939795970917,-0.7557986378669739,0.5077804327011108],"scale":[1.0000001192092896,0.9999998807907104,0.9999998807907104],"translation":[6.429431915283203,-7.85713005065918,5.331770420074463]},{"children":[18],"name":"LForeArm_09","rotation":[1.4901161193847656e-8,-1.4901161193847656e-8,1.4901161193847656e-8,1],"translation":[7.16520357131958,0,0.000003814697265625]},{"children":[19,20,22,24],"name":"LHand_010","rotation":[-0.015898820012807846,0.03070599026978016,-0.009943585842847824,0.9993526339530945],"scale":[1,0.9999999403953552,0.9999998211860657],"translation":[3.976530075073242,0,0.0000019073486328125]},{"name":"EndLHand_011","rotation":[1.4901158529312397e-8,-2.2351736461700966e-8,-2.2351736461700966e-8,1],"scale":[1.000000238418579,1.0000001192092896,1.000000238418579],"translation":[4.324993133544922,-0.000003814697265625,0.00000286102294921875]},{"children":[21],"name":"LFingerA_012","rotation":[0.6381630897521973,-0.01560425478965044,0.056952640414237976,0.7676332592964172],"scale":[1.000000238418579,1,1],"translation":[1.7145023345947266,-0.06418800354003906,1.5798702239990234]},{"name":"EndLFingerA_013","rotation":[-4.470348002882929e-8,4.470347647611561e-8,1.998401020808808e-15,1],"scale":[1.0000001192092896,1.0000001192092896,1],"translation":[1.965768814086914,0.00000286102294921875,0.0000057220458984375]},{"children":[23],"name":"LFingerB_014","rotation":[-0.05868225544691086,-0.019154421985149384,-0.030802182853221893,0.9976175427436829],"scale":[1.0000001192092896,1,1.0000003576278687],"translation":[2.1762447357177734,1.4764366149902344,-0.14052200317382812]},{"name":"EndLFingerB_015","rotation":[1.0755286609847388e-15,-2.9802322387695312e-8,3.725290653733282e-8,1],"scale":[0.9999999403953552,0.9999998807907104,0.9999997615814209],"translation":[1.9752273559570312,-0.0000057220458984375,0.00000286102294921875]},{"children":[25],"name":"LFingerC_016","rotation":[-0.5602691173553467,-0.00835322868078947,-0.029529782012104988,0.8277419209480286],"scale":[1.0000001192092896,1.0000001192092896,1.000000238418579],"translation":[2.1309432983398438,0.1292877197265625,-1.5893163681030273]},{"name":"EndLFingerC_017","rotation":[6.938892249546003e-18,2.0033273064697653e-25,2.8870996260366155e-8,1],"scale":[1.0000001192092896,1.000000238418579,1.000000238418579],"translation":[1.8540706634521484,4.76837158203125e-7,0.000003814697265625]},{"children":[27],"name":"LThigh_018","rotation":[0.11236588656902313,-0.21568633615970612,0.9610412120819092,-0.13135108351707458],"scale":[1,0.9999999403953552,0.9999999403953552],"translation":[-5.835209846496582,-7.185259819030762,2.0113298892974854]},{"children":[28],"name":"LLeg_019","rotation":[2.2083672490680328e-7,0.4003869295120239,-4.542450540157006e-7,0.9163461923599243],"scale":[0.9999998807907104,0.9999997615814209,0.9999998211860657],"translation":[6.09271764755249,0.00000286102294921875,0]},{"children":[29,30],"name":"LFoot_020","rotation":[0.07195507735013962,0.8643945455551147,0.07706810534000397,-0.4916350841522217],"scale":[1.000000238418579,1.0000001192092896,1.0000003576278687],"translation":[4.795052528381348,8.881784197001252e-16,9.5367431640625e-7]},{"name":"EndLFoot_021","rotation":[-4.547474050965727e-13,1.7053028368747836e-13,5.111966839416171e-12,1],"scale":[0.9999998807907104,0.9999998807907104,0.9999998211860657],"translation":[7.447473049163818,-0.000001430511474609375,0]},{"children":[31],"name":"LToe_022","rotation":[-0.000027894973754882812,0.000014500000361294951,2.253552483511001e-10,1],"scale":[0.9999998807907104,0.9999998807907104,0.9999998211860657],"translation":[2.7000012397766113,-0.000003814697265625,-0.8080350160598755]},{"name":"EndLToe_023","rotation":[2.1406014555678448e-21,-9.094947017729282e-13,6.073863634270538e-10,1],"translation":[6.000000953674316,8.881784197001252e-16,0]},{"children":[33],"name":"RArm_024","rotation":[0.3746121823787689,-0.17490948736667633,0.7557985782623291,0.5077803730964661],"scale":[1,0.9999998807907104,0.9999999403953552],"translation":[6.429435729980469,7.857118129730225,5.331759929656982]},{"children":[34],"name":"RForeArm_025","rotation":[-1.4901157641133977e-8,-1.862644971595273e-8,-2.2351740014414645e-8,1],"scale":[1.0000001192092896,1.000000238418579,1.0000001192092896],"translation":[7.165236949920654,0.0000152587890625,-0.000011444091796875]},{"children":[35,36,38,40],"name":"RHand_026","rotation":[0.015899330377578735,0.03070601262152195,0.009943965822458267,0.9993525147438049],"scale":[0.9999999403953552,0.9999998211860657,0.9999998807907104],"translation":[3.9765138626098633,-0.0000095367431640625,0.0000057220458984375]},{"name":"EndRHand_027","rotation":[-5.960465188081798e-8,-7.4505792646561986e-9,-2.2351741790771484e-8,1],"scale":[1,0.9999999403953552,1],"translation":[4.324994087219238,0.0000019073486328125,9.5367431640625e-7]},{"children":[37],"name":"RFingerA_028","rotation":[-0.6381630897521973,-0.01560418400913477,-0.05695265531539917,0.7676331996917725],"scale":[0.9999997615814209,0.9999998211860657,1.0000001192092896],"translation":[1.7145013809204102,0.06418991088867188,1.5798711776733398]},{"name":"EndRFingerA_029","rotation":[4.470348358154297e-8,-3.7252891882388894e-9,2.60770320892334e-8,1],"scale":[1,1,0.9999999403953552],"translation":[1.9657726287841797,0.00000286102294921875,0.0000057220458984375]},{"children":[39],"name":"RFingerB_030","rotation":[0.05868212506175041,-0.01915397308766842,0.030801594257354736,0.9976176619529724],"scale":[1,1.0000001192092896,1.0000001192092896],"translation":[2.176241874694824,-1.4764328002929688,-0.1405200958251953]},{"name":"EndRFingerB_031","rotation":[1.5543126579916928e-15,5.2154071283894154e-8,-2.980232594040899e-8,1],"scale":[0.9999998807907104,1,0.9999997615814209],"translation":[1.9752321243286133,0,9.5367431640625e-7]},{"children":[41],"name":"RFingerC_032","rotation":[0.5602691769599915,-0.008352777920663357,0.029529549181461334,0.8277419209480286],"scale":[1.0000001192092896,1.000000238418579,1],"translation":[2.1309423446655273,-0.1292896270751953,-1.5893192291259766]},{"name":"EndRFingerC_033","rotation":[-9.313226634333205e-9,2.9802322387695312e-8,-3.725290076417309e-9,1],"scale":[1,0.9999998807907104,0.9999998807907104],"translation":[1.8540687561035156,0.0000011920928955078125,0]},{"children":[43],"name":"RThigh_034","rotation":[0.11236589401960373,0.21568630635738373,0.9610413312911987,0.13135109841823578],"translation":[-5.835261344909668,7.185257911682129,2.0113298892974854]},{"children":[44],"name":"RLeg_035","rotation":[-8.664148509751612e-8,0.40038689970970154,8.664149220294348e-8,0.9163461923599243],"translation":[6.092679977416992,-0.000010013580322265625,0.0000133514404296875]},{"children":[45,46],"name":"RFoot_036","rotation":[-0.07195582240819931,0.8643947243690491,-0.07706817984580994,-0.49163463711738586],"scale":[0.9999998211860657,0.9999998211860657,1],"translation":[4.795050621032715,-0.0000019073486328125,0.0000035762786865234375]},{"name":"EndRFoot_037","rotation":[6.352747104407253e-22,-4.235164736271502e-22,5.0648096827643485e-12,1],"translation":[7.447472095489502,0.000008106231689453125,2.220446049250313e-16]},{"children":[47],"name":"RToe_038","rotation":[0.000028000000384054147,0.000014500001270789653,-3.114291047268125e-10,1],"translation":[2.7000012397766113,0.000002384185791015625,-0.8080300092697144]},{"name":"EndRToe_039","rotation":[1.4823076576950256e-21,-4.7645603283054394e-21,-7.633769172343818e-10,1],"translation":[5.999989032745361,0.00001811981201171875,0.000004172325134277344]},{"children":[49],"name":"Tail1_040","rotation":[6.866189892207331e-7,0.8201205134391785,2.271342225412809e-8,0.5721908211708069],"translation":[-12.187997817993164,0,-4.407509803771973]},{"children":[50],"name":"Tail2_041","rotation":[1.1614090223398266e-13,-0.22509503364562988,-2.339008215492813e-15,0.9743369221687317],"scale":[0.9999998807907104,1,0.9999998807907104],"translation":[4.124700546264648,0,-4.76837158203125e-7]},{"children":[51],"name":"Tail3_042","rotation":[1.312423680475093e-14,-0.21043550968170166,6.097048864048271e-14,0.9776078462600708],"scale":[1.0000001192092896,1,1.0000001192092896],"translation":[4.220280647277832,0,0]},{"name":"EndTail3_043","rotation":[-3.1763735522036263e-22,2.7755575615628914e-17,1.5881867761018131e-22,1],"translation":[16.517597198486328,0.0000010000003385357559,0.0000016689300537109375]},{"name":"pm0007_00_BodySkin_044"},{"name":"pm0007_00_ShellSkin_045"}],"samplers":[{"magFilter":9729,"minFilter":9987,"wrapS":10497,"wrapT":10497}],"scene":0,"scenes":[{"name":"Sketchfab_Scene","nodes":[0]}],"skins":[{"inverseBindMatrices":8,"joints":[4,8,9,10,11,12,13,14,15,16,17,18,19,20,21,22,23,24,25,26,27,28,29,30,31,32,33,34,35,36,37,38,39,40,41,42,43,44,45,46,47,48,49,50,51,52,53],"skeleton":4}],"textures":[{"sampler":0,"source":0},{"sampler":0,"source":1}]}